<mxfile host="app.diagrams.net" agent="Mozilla/5.0 (Windows NT 10.0; Win64; x64) AppleWebKit/537.36 (KHTML, like Gecko) Chrome/129.0.0.0 Safari/537.36" version="24.7.17">
  <diagram name="Page-1" id="13e1069c-82ec-6db2-03f1-153e76fe0fe0">
    <mxGraphModel dx="1407" dy="539" grid="1" gridSize="10" guides="1" tooltips="1" connect="1" arrows="1" fold="1" page="1" pageScale="1" pageWidth="1100" pageHeight="850" background="none" math="0" shadow="0">
      <root>
        <mxCell id="0" />
        <mxCell id="1" parent="0" />
        <mxCell id="7baba1c4bc27f4b0-2" value=":GUI" style="shape=umlLifeline;perimeter=lifelinePerimeter;whiteSpace=wrap;html=1;container=1;collapsible=0;recursiveResize=0;outlineConnect=0;rounded=1;shadow=0;comic=0;labelBackgroundColor=none;strokeWidth=1;fontFamily=Verdana;fontSize=12;align=center;" parent="1" vertex="1">
          <mxGeometry x="240" y="80" width="100" height="790" as="geometry" />
        </mxCell>
        <mxCell id="7baba1c4bc27f4b0-10" value="" style="html=1;points=[];perimeter=orthogonalPerimeter;rounded=0;shadow=0;comic=0;labelBackgroundColor=none;strokeWidth=1;fontFamily=Verdana;fontSize=12;align=center;" parent="7baba1c4bc27f4b0-2" vertex="1">
          <mxGeometry x="45" y="100" width="10" height="660" as="geometry" />
        </mxCell>
        <mxCell id="7baba1c4bc27f4b0-3" value=":Virtual Triage" style="shape=umlLifeline;perimeter=lifelinePerimeter;whiteSpace=wrap;html=1;container=1;collapsible=0;recursiveResize=0;outlineConnect=0;rounded=1;shadow=0;comic=0;labelBackgroundColor=none;strokeWidth=1;fontFamily=Verdana;fontSize=12;align=center;" parent="1" vertex="1">
          <mxGeometry x="400" y="80" width="100" height="790" as="geometry" />
        </mxCell>
        <mxCell id="7baba1c4bc27f4b0-13" value="" style="html=1;points=[];perimeter=orthogonalPerimeter;rounded=0;shadow=0;comic=0;labelBackgroundColor=none;strokeWidth=1;fontFamily=Verdana;fontSize=12;align=center;" parent="7baba1c4bc27f4b0-3" vertex="1">
          <mxGeometry x="45" y="330" width="10" height="20" as="geometry" />
        </mxCell>
        <mxCell id="BnOWhrEO1M733YUDJ6N0-16" value="Notifies the nurse &lt;br&gt;about results arrival" style="html=1;verticalAlign=bottom;endArrow=open;dashed=1;endSize=8;labelBackgroundColor=none;fontFamily=Verdana;fontSize=12;exitX=-0.057;exitY=0.927;exitDx=0;exitDy=0;exitPerimeter=0;" edge="1" parent="7baba1c4bc27f4b0-3" target="7baba1c4bc27f4b0-3">
          <mxGeometry x="-0.0369" y="-10" relative="1" as="geometry">
            <mxPoint x="70" y="340" as="targetPoint" />
            <mxPoint x="184.99999999999977" y="340.02000000000004" as="sourcePoint" />
            <mxPoint as="offset" />
          </mxGeometry>
        </mxCell>
        <mxCell id="BnOWhrEO1M733YUDJ6N0-26" value="" style="html=1;points=[];perimeter=orthogonalPerimeter;rounded=0;shadow=0;comic=0;labelBackgroundColor=none;strokeWidth=1;fontFamily=Verdana;fontSize=12;align=center;" vertex="1" parent="7baba1c4bc27f4b0-3">
          <mxGeometry x="45" y="550" width="10" height="150" as="geometry" />
        </mxCell>
        <mxCell id="7baba1c4bc27f4b0-4" value=":Records" style="shape=umlLifeline;perimeter=lifelinePerimeter;whiteSpace=wrap;html=1;container=1;collapsible=0;recursiveResize=0;outlineConnect=0;rounded=1;shadow=0;comic=0;labelBackgroundColor=none;strokeWidth=1;fontFamily=Verdana;fontSize=12;align=center;" parent="1" vertex="1">
          <mxGeometry x="540" y="80" width="100" height="790" as="geometry" />
        </mxCell>
        <mxCell id="BnOWhrEO1M733YUDJ6N0-18" value="Sends results for display" style="html=1;verticalAlign=bottom;endArrow=open;dashed=1;endSize=8;labelBackgroundColor=none;fontFamily=Verdana;fontSize=12;exitX=-0.057;exitY=0.927;exitDx=0;exitDy=0;exitPerimeter=0;" edge="1" parent="7baba1c4bc27f4b0-4" target="7baba1c4bc27f4b0-2">
          <mxGeometry x="0.4577" y="-20" relative="1" as="geometry">
            <mxPoint x="-90" y="410" as="targetPoint" />
            <mxPoint x="44.99999999999977" y="410.02000000000004" as="sourcePoint" />
            <mxPoint as="offset" />
          </mxGeometry>
        </mxCell>
        <mxCell id="7baba1c4bc27f4b0-5" value=":Patients Database" style="shape=umlLifeline;perimeter=lifelinePerimeter;whiteSpace=wrap;html=1;container=1;collapsible=0;recursiveResize=0;outlineConnect=0;rounded=1;shadow=0;comic=0;labelBackgroundColor=none;strokeWidth=1;fontFamily=Verdana;fontSize=12;align=center;" parent="1" vertex="1">
          <mxGeometry x="680" y="80" width="100" height="790" as="geometry" />
        </mxCell>
        <mxCell id="7baba1c4bc27f4b0-19" value="" style="html=1;points=[];perimeter=orthogonalPerimeter;rounded=0;shadow=0;comic=0;labelBackgroundColor=none;strokeWidth=1;fontFamily=Verdana;fontSize=12;align=center;" parent="7baba1c4bc27f4b0-5" vertex="1">
          <mxGeometry x="45" y="230" width="10" height="110" as="geometry" />
        </mxCell>
        <mxCell id="7baba1c4bc27f4b0-39" value="Process &lt;br&gt;request" style="html=1;verticalAlign=bottom;endArrow=block;labelBackgroundColor=none;fontFamily=Verdana;fontSize=12;elbow=vertical;edgeStyle=orthogonalEdgeStyle;curved=1;entryX=1;entryY=0.286;entryPerimeter=0;" parent="7baba1c4bc27f4b0-5" edge="1" source="7baba1c4bc27f4b0-19">
          <mxGeometry x="-0.0853" y="30" relative="1" as="geometry">
            <mxPoint x="40" y="293" as="sourcePoint" />
            <mxPoint x="44.99999999999996" y="254.66999999999996" as="targetPoint" />
            <Array as="points">
              <mxPoint y="293" />
              <mxPoint y="255" />
            </Array>
            <mxPoint as="offset" />
          </mxGeometry>
        </mxCell>
        <mxCell id="7baba1c4bc27f4b0-8" value=":Nurse" style="shape=umlLifeline;perimeter=lifelinePerimeter;whiteSpace=wrap;html=1;container=1;collapsible=0;recursiveResize=0;outlineConnect=0;rounded=1;shadow=0;comic=0;labelBackgroundColor=none;strokeWidth=1;fontFamily=Verdana;fontSize=12;align=center;" parent="1" vertex="1">
          <mxGeometry x="100" y="80" width="100" height="790" as="geometry" />
        </mxCell>
        <mxCell id="7baba1c4bc27f4b0-9" value="" style="html=1;points=[];perimeter=orthogonalPerimeter;rounded=0;shadow=0;comic=0;labelBackgroundColor=none;strokeWidth=1;fontFamily=Verdana;fontSize=12;align=center;" parent="7baba1c4bc27f4b0-8" vertex="1">
          <mxGeometry x="45" y="100" width="10" height="660" as="geometry" />
        </mxCell>
        <mxCell id="BnOWhrEO1M733YUDJ6N0-38" value="Notifies the nurse&lt;br&gt;that patient has&amp;nbsp;&lt;br&gt;joined the session&lt;div&gt;&lt;br/&gt;&lt;/div&gt;" style="html=1;verticalAlign=bottom;endArrow=open;dashed=1;endSize=8;labelBackgroundColor=none;fontFamily=Verdana;fontSize=12;exitX=-0.105;exitY=0.982;exitDx=0;exitDy=0;exitPerimeter=0;" edge="1" parent="7baba1c4bc27f4b0-8">
          <mxGeometry x="-0.0072" y="12" relative="1" as="geometry">
            <mxPoint x="55" y="701" as="targetPoint" />
            <mxPoint x="183.95000000000005" y="700.3799999999999" as="sourcePoint" />
            <mxPoint as="offset" />
          </mxGeometry>
        </mxCell>
        <mxCell id="7baba1c4bc27f4b0-16" value="" style="html=1;points=[];perimeter=orthogonalPerimeter;rounded=0;shadow=0;comic=0;labelBackgroundColor=none;strokeWidth=1;fontFamily=Verdana;fontSize=12;align=center;" parent="1" vertex="1">
          <mxGeometry x="585" y="219" width="10" height="281" as="geometry" />
        </mxCell>
        <mxCell id="7baba1c4bc27f4b0-11" value="Nurse clicks on &lt;br&gt;&quot;Virtual Triage&quot;&lt;br&gt;button" style="html=1;verticalAlign=bottom;endArrow=block;entryX=0;entryY=0;labelBackgroundColor=none;fontFamily=Verdana;fontSize=12;edgeStyle=elbowEdgeStyle;elbow=vertical;" parent="1" edge="1">
          <mxGeometry x="0.0004" y="2" relative="1" as="geometry">
            <mxPoint x="155" y="192.04761904761904" as="sourcePoint" />
            <mxPoint x="285" y="192" as="targetPoint" />
            <mxPoint as="offset" />
          </mxGeometry>
        </mxCell>
        <mxCell id="BnOWhrEO1M733YUDJ6N0-2" value="&lt;font style=&quot;font-size: 11px;&quot;&gt;Displays the&amp;nbsp;&lt;br&gt;&quot;Virtual Triage&quot; page&lt;/font&gt;" style="html=1;verticalAlign=bottom;endArrow=open;dashed=1;endSize=8;labelBackgroundColor=none;fontFamily=Verdana;fontSize=12;" edge="1" parent="1">
          <mxGeometry x="-0.0156" y="-6" relative="1" as="geometry">
            <mxPoint x="155" y="236" as="targetPoint" />
            <mxPoint x="283" y="236" as="sourcePoint" />
            <mxPoint as="offset" />
          </mxGeometry>
        </mxCell>
        <mxCell id="BnOWhrEO1M733YUDJ6N0-3" value="" style="endArrow=classic;html=1;rounded=0;entryX=-0.248;entryY=0.346;entryDx=0;entryDy=0;entryPerimeter=0;" edge="1" parent="1">
          <mxGeometry width="50" height="50" relative="1" as="geometry">
            <mxPoint x="158.48" y="277" as="sourcePoint" />
            <mxPoint x="285" y="277.5799999999999" as="targetPoint" />
          </mxGeometry>
        </mxCell>
        <mxCell id="BnOWhrEO1M733YUDJ6N0-4" value="Enters the patient&#39;s&lt;br&gt;details" style="edgeLabel;html=1;align=center;verticalAlign=middle;resizable=0;points=[];" vertex="1" connectable="0" parent="BnOWhrEO1M733YUDJ6N0-3">
          <mxGeometry x="0.1193" y="1" relative="1" as="geometry">
            <mxPoint x="-12" y="-16" as="offset" />
          </mxGeometry>
        </mxCell>
        <mxCell id="BnOWhrEO1M733YUDJ6N0-5" value="" style="endArrow=classic;html=1;rounded=0;exitX=1.5;exitY=0.522;exitDx=0;exitDy=0;exitPerimeter=0;" edge="1" parent="1">
          <mxGeometry width="50" height="50" relative="1" as="geometry">
            <mxPoint x="296" y="300.05999999999995" as="sourcePoint" />
            <mxPoint x="586" y="300" as="targetPoint" />
          </mxGeometry>
        </mxCell>
        <mxCell id="BnOWhrEO1M733YUDJ6N0-6" value="Sends the patient&#39;s details&lt;br&gt;&amp;nbsp;to access their record&amp;nbsp;" style="edgeLabel;html=1;align=center;verticalAlign=middle;resizable=0;points=[];" vertex="1" connectable="0" parent="BnOWhrEO1M733YUDJ6N0-5">
          <mxGeometry x="-0.4023" relative="1" as="geometry">
            <mxPoint x="-10" y="-20" as="offset" />
          </mxGeometry>
        </mxCell>
        <mxCell id="BnOWhrEO1M733YUDJ6N0-7" value="" style="endArrow=classic;html=1;rounded=0;" edge="1" parent="1">
          <mxGeometry width="50" height="50" relative="1" as="geometry">
            <mxPoint x="595" y="321" as="sourcePoint" />
            <mxPoint x="727" y="320" as="targetPoint" />
          </mxGeometry>
        </mxCell>
        <mxCell id="BnOWhrEO1M733YUDJ6N0-14" value="Searches for patient&#39;s&lt;br&gt;&amp;nbsp;data" style="edgeLabel;html=1;align=center;verticalAlign=middle;resizable=0;points=[];" vertex="1" connectable="0" parent="BnOWhrEO1M733YUDJ6N0-7">
          <mxGeometry x="-0.0417" y="1" relative="1" as="geometry">
            <mxPoint x="-1" y="-16" as="offset" />
          </mxGeometry>
        </mxCell>
        <mxCell id="BnOWhrEO1M733YUDJ6N0-15" value="&lt;font style=&quot;font-size: 11px;&quot;&gt;Sends patient&#39;s&lt;br&gt;record&lt;/font&gt;" style="html=1;verticalAlign=bottom;endArrow=open;dashed=1;endSize=8;labelBackgroundColor=none;fontFamily=Verdana;fontSize=12;entryX=1.181;entryY=0.95;entryDx=0;entryDy=0;entryPerimeter=0;exitX=-0.057;exitY=0.927;exitDx=0;exitDy=0;exitPerimeter=0;" edge="1" parent="1">
          <mxGeometry relative="1" as="geometry">
            <mxPoint x="596.81" y="405.95000000000005" as="targetPoint" />
            <mxPoint x="724.4299999999998" y="405.97" as="sourcePoint" />
          </mxGeometry>
        </mxCell>
        <mxCell id="BnOWhrEO1M733YUDJ6N0-19" value="Displays results &lt;br&gt;for nurse" style="html=1;verticalAlign=bottom;endArrow=open;dashed=1;endSize=8;labelBackgroundColor=none;fontFamily=Verdana;fontSize=12;exitX=-0.057;exitY=0.943;exitDx=0;exitDy=0;exitPerimeter=0;entryX=0.943;entryY=0.878;entryDx=0;entryDy=0;entryPerimeter=0;" edge="1" parent="1">
          <mxGeometry x="0.1068" y="-10" relative="1" as="geometry">
            <mxPoint x="154.43000000000006" y="575.3199999999999" as="targetPoint" />
            <mxPoint x="284.43000000000006" y="575.6300000000001" as="sourcePoint" />
            <mxPoint as="offset" />
          </mxGeometry>
        </mxCell>
        <mxCell id="BnOWhrEO1M733YUDJ6N0-20" value="" style="endArrow=classic;html=1;rounded=0;" edge="1" parent="1">
          <mxGeometry width="50" height="50" relative="1" as="geometry">
            <mxPoint x="156" y="525" as="sourcePoint" />
            <mxPoint x="287" y="525" as="targetPoint" />
          </mxGeometry>
        </mxCell>
        <mxCell id="BnOWhrEO1M733YUDJ6N0-21" value="Clicks &lt;br&gt;&quot;View Results&quot; &lt;br&gt;button" style="edgeLabel;html=1;align=center;verticalAlign=middle;resizable=0;points=[];" vertex="1" connectable="0" parent="BnOWhrEO1M733YUDJ6N0-20">
          <mxGeometry x="0.5682" y="-1" relative="1" as="geometry">
            <mxPoint x="-39" y="-26" as="offset" />
          </mxGeometry>
        </mxCell>
        <mxCell id="BnOWhrEO1M733YUDJ6N0-23" value="" style="endArrow=classic;html=1;rounded=0;" edge="1" parent="1">
          <mxGeometry width="50" height="50" relative="1" as="geometry">
            <mxPoint x="155" y="606" as="sourcePoint" />
            <mxPoint x="285" y="607" as="targetPoint" />
          </mxGeometry>
        </mxCell>
        <mxCell id="BnOWhrEO1M733YUDJ6N0-24" value="Clicks &quot;Start&quot; button" style="edgeLabel;html=1;align=center;verticalAlign=middle;resizable=0;points=[];" vertex="1" connectable="0" parent="BnOWhrEO1M733YUDJ6N0-23">
          <mxGeometry x="0.1386" y="-1" relative="1" as="geometry">
            <mxPoint x="-12" y="-12" as="offset" />
          </mxGeometry>
        </mxCell>
        <mxCell id="BnOWhrEO1M733YUDJ6N0-25" value="" style="endArrow=classic;html=1;rounded=0;" edge="1" parent="1">
          <mxGeometry width="50" height="50" relative="1" as="geometry">
            <mxPoint x="293" y="640" as="sourcePoint" />
            <mxPoint x="445" y="639" as="targetPoint" />
          </mxGeometry>
        </mxCell>
        <mxCell id="BnOWhrEO1M733YUDJ6N0-27" value="Sends starting request" style="edgeLabel;html=1;align=center;verticalAlign=middle;resizable=0;points=[];" vertex="1" connectable="0" parent="BnOWhrEO1M733YUDJ6N0-25">
          <mxGeometry x="-0.0663" y="2" relative="1" as="geometry">
            <mxPoint y="-8" as="offset" />
          </mxGeometry>
        </mxCell>
        <mxCell id="BnOWhrEO1M733YUDJ6N0-29" value="Process &lt;br&gt;request" style="html=1;verticalAlign=bottom;endArrow=block;labelBackgroundColor=none;fontFamily=Verdana;fontSize=12;elbow=vertical;edgeStyle=orthogonalEdgeStyle;curved=1;entryX=1;entryY=0.286;entryPerimeter=0;exitX=0;exitY=0.567;exitDx=0;exitDy=0;exitPerimeter=0;" edge="1" parent="1">
          <mxGeometry x="-0.2336" y="40" relative="1" as="geometry">
            <mxPoint x="445" y="683.03" as="sourcePoint" />
            <mxPoint x="445" y="653.67" as="targetPoint" />
            <Array as="points">
              <mxPoint x="400" y="683" />
              <mxPoint x="400" y="654" />
            </Array>
            <mxPoint as="offset" />
          </mxGeometry>
        </mxCell>
        <mxCell id="BnOWhrEO1M733YUDJ6N0-30" value="" style="endArrow=classic;html=1;rounded=0;" edge="1" parent="1" target="BnOWhrEO1M733YUDJ6N0-31">
          <mxGeometry width="50" height="50" relative="1" as="geometry">
            <mxPoint x="455" y="704" as="sourcePoint" />
            <mxPoint x="590" y="680" as="targetPoint" />
          </mxGeometry>
        </mxCell>
        <mxCell id="BnOWhrEO1M733YUDJ6N0-34" value="Notifies patient of the &lt;br&gt;starting of session" style="edgeLabel;html=1;align=center;verticalAlign=middle;resizable=0;points=[];" vertex="1" connectable="0" parent="BnOWhrEO1M733YUDJ6N0-30">
          <mxGeometry x="0.0082" relative="1" as="geometry">
            <mxPoint x="-4" y="-24" as="offset" />
          </mxGeometry>
        </mxCell>
        <mxCell id="BnOWhrEO1M733YUDJ6N0-31" value=":Patient" style="shape=umlLifeline;perimeter=lifelinePerimeter;whiteSpace=wrap;html=1;container=1;collapsible=0;recursiveResize=0;outlineConnect=0;rounded=1;shadow=0;comic=0;labelBackgroundColor=none;strokeWidth=1;fontFamily=Verdana;fontSize=12;align=center;" vertex="1" parent="1">
          <mxGeometry x="820" y="80" width="100" height="790" as="geometry" />
        </mxCell>
        <mxCell id="BnOWhrEO1M733YUDJ6N0-33" value="" style="rounded=0;whiteSpace=wrap;html=1;" vertex="1" parent="BnOWhrEO1M733YUDJ6N0-31">
          <mxGeometry x="45" y="610" width="10" height="60" as="geometry" />
        </mxCell>
        <mxCell id="BnOWhrEO1M733YUDJ6N0-35" value="The patient clicks &lt;br&gt;the &quot;Join&quot; button" style="html=1;verticalAlign=bottom;endArrow=open;dashed=1;endSize=8;labelBackgroundColor=none;fontFamily=Verdana;fontSize=12;exitX=-0.057;exitY=0.927;exitDx=0;exitDy=0;exitPerimeter=0;" edge="1" parent="1" target="7baba1c4bc27f4b0-3">
          <mxGeometry x="-0.012" relative="1" as="geometry">
            <mxPoint x="570" y="740" as="targetPoint" />
            <mxPoint x="864.9999999999998" y="740.02" as="sourcePoint" />
            <mxPoint as="offset" />
          </mxGeometry>
        </mxCell>
        <mxCell id="BnOWhrEO1M733YUDJ6N0-37" value="Sends confirmation that&lt;br&gt;patient has joined" style="html=1;verticalAlign=bottom;endArrow=open;dashed=1;endSize=8;labelBackgroundColor=none;fontFamily=Verdana;fontSize=12;" edge="1" parent="1">
          <mxGeometry x="-0.0267" y="-8" relative="1" as="geometry">
            <mxPoint x="293" y="768" as="targetPoint" />
            <mxPoint x="443" y="768" as="sourcePoint" />
            <mxPoint as="offset" />
          </mxGeometry>
        </mxCell>
        <mxCell id="BnOWhrEO1M733YUDJ6N0-41" value="" style="endArrow=classic;html=1;rounded=0;exitX=0.895;exitY=0.99;exitDx=0;exitDy=0;exitPerimeter=0;" edge="1" parent="1">
          <mxGeometry width="50" height="50" relative="1" as="geometry">
            <mxPoint x="153.95000000000005" y="827.3999999999999" as="sourcePoint" />
            <mxPoint x="284" y="827" as="targetPoint" />
          </mxGeometry>
        </mxCell>
        <mxCell id="BnOWhrEO1M733YUDJ6N0-42" value="Accepts the join request" style="edgeLabel;html=1;align=center;verticalAlign=middle;resizable=0;points=[];" vertex="1" connectable="0" parent="BnOWhrEO1M733YUDJ6N0-41">
          <mxGeometry x="0.0139" y="-1" relative="1" as="geometry">
            <mxPoint x="-5" y="-10" as="offset" />
          </mxGeometry>
        </mxCell>
      </root>
    </mxGraphModel>
  </diagram>
</mxfile>
